<svg width="500" height="500" viewBox="0 0 500 500" fill="none" xmlns="http://www.w3.org/2000/svg">
<g clip-path="url(#clip0_1354_2031)">
<path d="M250 500C388.071 500 500 388.071 500 250C500 111.929 388.071 0 250 0C111.929 0 0 111.929 0 250C0 388.071 111.929 500 250 500Z" fill="#5E6AD2"/>
<g clip-path="url(#clip1_1354_2031)">
<path d="M79.2889 290.33C78.5102 287.01 82.4651 284.919 84.8763 287.33L212.67 415.124C215.081 417.535 212.99 421.49 209.67 420.711C145.18 405.583 94.4173 354.82 79.2889 290.33ZM75.0066 239.112C74.9449 240.103 75.3177 241.071 76.0201 241.774L258.226 423.98C258.928 424.682 259.897 425.056 260.888 424.993C269.18 424.477 277.316 423.383 285.257 421.753C287.932 421.203 288.862 417.916 286.93 415.984L84.0158 213.07C82.0843 211.138 78.7967 212.068 78.2472 214.743C76.6165 222.683 75.5231 230.82 75.0066 239.112ZM89.7383 178.969C89.1555 180.277 89.4523 181.806 90.465 182.819L317.181 409.535C318.194 410.548 319.723 410.844 321.031 410.262C327.282 407.477 333.341 404.337 339.18 400.868C341.113 399.72 341.411 397.064 339.822 395.475L104.525 160.178C102.935 158.589 100.28 158.887 99.1322 160.82C95.6626 166.659 92.5227 172.718 89.7383 178.969ZM119.305 138.259C118.01 136.964 117.93 134.886 119.15 133.52C151.228 97.6076 197.89 75 249.832 75C346.574 75 425 153.426 425 250.168C425 302.11 402.392 348.772 366.48 380.849C365.114 382.07 363.036 381.99 361.741 380.694L119.305 138.259Z" fill="white"/>
</g>
</g>
<defs>
<clipPath id="clip0_1354_2031">
<rect width="500" height="500" fill="white"/>
</clipPath>
<clipPath id="clip1_1354_2031">
<rect width="350" height="350" fill="white" transform="translate(75 75)"/>
</clipPath>
</defs>
</svg>
