<svg width="100" height="40" viewBox="0 0 100 40" fill="none" xmlns="http://www.w3.org/2000/svg">
<path d="M40.8077 12.5071H38.3219C38.2888 12.2519 38.2208 12.0215 38.1181 11.8161C38.0153 11.6106 37.8794 11.4349 37.7104 11.2891C37.5414 11.1432 37.3409 11.0322 37.1088 10.956C36.8801 10.8764 36.6266 10.8366 36.3482 10.8366C35.8543 10.8366 35.4284 10.9576 35.0705 11.1996C34.7158 11.4415 34.4424 11.7912 34.2502 12.2486C34.0613 12.706 33.9668 13.2595 33.9668 13.9091C33.9668 14.5852 34.0629 15.152 34.2551 15.6094C34.4507 16.0634 34.7241 16.4065 35.0755 16.6385C35.4301 16.8672 35.8494 16.9815 36.3333 16.9815C36.6051 16.9815 36.852 16.9467 37.074 16.8771C37.2994 16.8075 37.4966 16.7064 37.6657 16.5739C37.838 16.438 37.9789 16.2739 38.0882 16.0817C38.2009 15.8861 38.2788 15.6657 38.3219 15.4205L40.8077 15.4354C40.7646 15.8861 40.6337 16.3303 40.415 16.7678C40.1995 17.2053 39.9029 17.6046 39.525 17.9659C39.1472 18.3239 38.6865 18.6089 38.1429 18.821C37.6027 19.0331 36.9829 19.1392 36.2836 19.1392C35.3622 19.1392 34.5369 18.937 33.8077 18.5327C33.0819 18.125 32.5085 17.5317 32.0875 16.7528C31.6666 15.974 31.4561 15.026 31.4561 13.9091C31.4561 12.7888 31.6699 11.8393 32.0975 11.0604C32.525 10.2815 33.1034 9.68987 33.8326 9.28551C34.5617 8.88115 35.3787 8.67898 36.2836 8.67898C36.9 8.67898 37.4701 8.76515 37.9938 8.9375C38.5175 9.10653 38.9782 9.35511 39.3759 9.68324C39.7736 10.008 40.0968 10.4074 40.3453 10.8814C40.5939 11.3554 40.748 11.8973 40.8077 12.5071ZM45.7805 19.1442C44.9785 19.1442 44.2891 18.9801 43.7124 18.652C43.139 18.3205 42.6965 17.8598 42.3849 17.2699C42.0767 16.6766 41.9226 15.9889 41.9226 15.2067C41.9226 14.4212 42.0767 13.7334 42.3849 13.1435C42.6965 12.5502 43.139 12.0895 43.7124 11.7614C44.2891 11.4299 44.9785 11.2642 45.7805 11.2642C46.5826 11.2642 47.2704 11.4299 47.8438 11.7614C48.4205 12.0895 48.8629 12.5502 49.1712 13.1435C49.4827 13.7334 49.6385 14.4212 49.6385 15.2067C49.6385 15.9889 49.4827 16.6766 49.1712 17.2699C48.8629 17.8598 48.4205 18.3205 47.8438 18.652C47.2704 18.9801 46.5826 19.1442 45.7805 19.1442ZM45.7955 17.3097C46.0871 17.3097 46.334 17.2202 46.5362 17.0412C46.7384 16.8622 46.8925 16.6136 46.9986 16.2955C47.108 15.9773 47.1626 15.6094 47.1626 15.1918C47.1626 14.7675 47.108 14.3963 46.9986 14.0781C46.8925 13.7599 46.7384 13.5114 46.5362 13.3324C46.334 13.1534 46.0871 13.0639 45.7955 13.0639C45.4938 13.0639 45.2386 13.1534 45.0298 13.3324C44.8243 13.5114 44.6669 13.7599 44.5575 14.0781C44.4515 14.3963 44.3984 14.7675 44.3984 15.1918C44.3984 15.6094 44.4515 15.9773 44.5575 16.2955C44.6669 16.6136 44.8243 16.8622 45.0298 17.0412C45.2386 17.2202 45.4938 17.3097 45.7955 17.3097ZM53.6729 19.1094C53.1095 19.1094 52.5974 18.9635 52.1367 18.6719C51.676 18.3802 51.3081 17.9427 51.033 17.3594C50.7579 16.776 50.6204 16.0518 50.6204 15.1868C50.6204 14.2886 50.7629 13.5495 51.0479 12.9695C51.333 12.3894 51.7058 11.9602 52.1665 11.6818C52.6306 11.4034 53.1294 11.2642 53.663 11.2642C54.064 11.2642 54.4071 11.3338 54.6921 11.473C54.9772 11.6089 55.2125 11.7846 55.3981 12C55.5837 12.2154 55.7246 12.4392 55.8207 12.6712H55.8704V8.81818H58.3015V19H55.8952V17.7621H55.8207C55.7179 17.9974 55.5721 18.2178 55.3832 18.4233C55.1942 18.6288 54.9573 18.7945 54.6722 18.9205C54.3905 19.0464 54.0574 19.1094 53.6729 19.1094ZM54.5181 17.2152C54.8131 17.2152 55.065 17.1323 55.2738 16.9666C55.4826 16.7976 55.6433 16.5606 55.756 16.2557C55.8687 15.9508 55.9251 15.5928 55.9251 15.1818C55.9251 14.7642 55.8687 14.4046 55.756 14.103C55.6467 13.8014 55.4859 13.5694 55.2738 13.407C55.065 13.2446 54.8131 13.1634 54.5181 13.1634C54.2165 13.1634 53.9613 13.2462 53.7525 13.4119C53.5437 13.5777 53.3846 13.8113 53.2752 14.1129C53.1692 14.4145 53.1161 14.7708 53.1161 15.1818C53.1161 15.5928 53.1708 15.9508 53.2802 16.2557C53.3896 16.5606 53.547 16.7976 53.7525 16.9666C53.9613 17.1323 54.2165 17.2152 54.5181 17.2152ZM63.4086 19.1442C62.6098 19.1442 61.9204 18.9867 61.3404 18.6719C60.7637 18.3537 60.3195 17.9013 60.008 17.3146C59.6998 16.7247 59.5456 16.0237 59.5456 15.2116C59.5456 14.4228 59.7014 13.7334 60.013 13.1435C60.3245 12.5502 60.7637 12.0895 61.3304 11.7614C61.8972 11.4299 62.565 11.2642 63.334 11.2642C63.8775 11.2642 64.3747 11.3487 64.8255 11.5178C65.2762 11.6868 65.6657 11.937 65.9938 12.2685C66.3219 12.5999 66.5771 13.0092 66.7594 13.4964C66.9417 13.9804 67.0328 14.5355 67.0328 15.1619V15.7685H60.3958V14.3565H64.7708C64.7675 14.098 64.7061 13.8677 64.5868 13.6655C64.4675 13.4633 64.3034 13.3059 64.0946 13.1932C63.8891 13.0772 63.6522 13.0192 63.3837 13.0192C63.1119 13.0192 62.8683 13.0805 62.6529 13.2031C62.4374 13.3224 62.2667 13.4865 62.1408 13.6953C62.0149 13.9008 61.9486 14.1345 61.9419 14.3963V15.8331C61.9419 16.1446 62.0033 16.4181 62.1259 16.6534C62.2485 16.8854 62.4225 17.0661 62.6479 17.1953C62.8733 17.3246 63.1417 17.3892 63.4533 17.3892C63.6687 17.3892 63.8643 17.3594 64.04 17.2997C64.2156 17.2401 64.3664 17.1522 64.4924 17.0362C64.6183 16.9202 64.7128 16.7777 64.7757 16.6087L67.008 16.6733C66.9152 17.1738 66.7114 17.6096 66.3965 17.9808C66.0849 18.3487 65.6756 18.6354 65.1685 18.8409C64.6614 19.0431 64.0748 19.1442 63.4086 19.1442ZM40.8077 26.5071H38.3219C38.2888 26.2519 38.2208 26.0215 38.1181 25.8161C38.0153 25.6106 37.8794 25.4349 37.7104 25.2891C37.5414 25.1432 37.3409 25.0322 37.1088 24.956C36.8801 24.8764 36.6266 24.8366 36.3482 24.8366C35.8543 24.8366 35.4284 24.9576 35.0705 25.1996C34.7158 25.4415 34.4424 25.7912 34.2502 26.2486C34.0613 26.706 33.9668 27.2595 33.9668 27.9091C33.9668 28.5852 34.0629 29.152 34.2551 29.6094C34.4507 30.0634 34.7241 30.4065 35.0755 30.6385C35.4301 30.8672 35.8494 30.9815 36.3333 30.9815C36.6051 30.9815 36.852 30.9467 37.074 30.8771C37.2994 30.8075 37.4966 30.7064 37.6657 30.5739C37.838 30.438 37.9789 30.2739 38.0882 30.0817C38.2009 29.8861 38.2788 29.6657 38.3219 29.4205L40.8077 29.4354C40.7646 29.8861 40.6337 30.3303 40.415 30.7678C40.1995 31.2053 39.9029 31.6046 39.525 31.9659C39.1472 32.3239 38.6865 32.6089 38.1429 32.821C37.6027 33.0331 36.9829 33.1392 36.2836 33.1392C35.3622 33.1392 34.5369 32.937 33.8077 32.5327C33.0819 32.125 32.5085 31.5317 32.0875 30.7528C31.6666 29.974 31.4561 29.026 31.4561 27.9091C31.4561 26.7888 31.6699 25.8393 32.0975 25.0604C32.525 24.2815 33.1034 23.6899 33.8326 23.2855C34.5617 22.8812 35.3787 22.679 36.2836 22.679C36.9 22.679 37.4701 22.7652 37.9938 22.9375C38.5175 23.1065 38.9782 23.3551 39.3759 23.6832C39.7736 24.008 40.0968 24.4074 40.3453 24.8814C40.5939 25.3554 40.748 25.8973 40.8077 26.5071ZM44.647 22.8182V33H42.2159V22.8182H44.647ZM46.1944 33V25.3636H48.6255V33H46.1944ZM47.4125 24.4737C47.0711 24.4737 46.7778 24.361 46.5325 24.1357C46.2872 23.907 46.1646 23.6319 46.1646 23.3104C46.1646 22.9922 46.2872 22.7204 46.5325 22.495C46.7778 22.2663 47.0711 22.152 47.4125 22.152C47.7572 22.152 48.0505 22.2663 48.2924 22.495C48.5377 22.7204 48.6603 22.9922 48.6603 23.3104C48.6603 23.6319 48.5377 23.907 48.2924 24.1357C48.0505 24.361 47.7572 24.4737 47.4125 24.4737ZM50.1729 33V25.3636H52.4847V26.7656H52.5692C52.7283 26.3016 52.9968 25.9354 53.3746 25.6669C53.7525 25.3984 54.2032 25.2642 54.7269 25.2642C55.2572 25.2642 55.7113 25.4001 56.0891 25.6719C56.467 25.9437 56.7073 26.3082 56.81 26.7656H56.8896C57.0321 26.3116 57.3105 25.9486 57.7248 25.6768C58.1391 25.4018 58.628 25.2642 59.1914 25.2642C59.9139 25.2642 60.5006 25.4962 60.9513 25.9602C61.4021 26.4209 61.6275 27.054 61.6275 27.8594V33H59.1964V28.4162C59.1964 28.035 59.0986 27.745 58.9031 27.5462C58.7075 27.344 58.454 27.2429 58.1424 27.2429C57.8076 27.2429 57.5442 27.3523 57.3519 27.571C57.163 27.7865 57.0685 28.0765 57.0685 28.4411V33H54.7319V28.3913C54.7319 28.0367 54.6358 27.7566 54.4435 27.5511C54.2513 27.3456 53.9978 27.2429 53.6829 27.2429C53.4708 27.2429 53.2835 27.2943 53.1211 27.397C52.9587 27.4964 52.8311 27.639 52.7383 27.8246C52.6488 28.0102 52.604 28.2289 52.604 28.4808V33H50.1729ZM63.1339 33V22.8182H65.565V26.6712H65.6147C65.7141 26.4392 65.855 26.2154 66.0373 26C66.2229 25.7846 66.4582 25.6089 66.7433 25.473C67.0316 25.3338 67.3763 25.2642 67.7773 25.2642C68.3076 25.2642 68.8031 25.4034 69.2638 25.6818C69.7279 25.9602 70.1024 26.3894 70.3874 26.9695C70.6725 27.5495 70.815 28.2886 70.815 29.1868C70.815 30.0518 70.6774 30.776 70.4023 31.3594C70.1306 31.9427 69.7627 32.3802 69.2987 32.6719C68.838 32.9635 68.3259 33.1094 67.7624 33.1094C67.378 33.1094 67.0449 33.0464 66.7631 32.9205C66.4814 32.7945 66.2444 32.6288 66.0522 32.4233C65.8633 32.2178 65.7174 31.9974 65.6147 31.7621H65.5401V33H63.1339ZM65.5153 29.1818C65.5153 29.5928 65.57 29.9508 65.6793 30.2557C65.792 30.5606 65.9528 30.7976 66.1616 30.9666C66.3737 31.1323 66.6272 31.2152 66.9222 31.2152C67.2205 31.2152 67.4741 31.1323 67.6829 30.9666C67.8917 30.7976 68.0491 30.5606 68.1552 30.2557C68.2646 29.9508 68.3192 29.5928 68.3192 29.1818C68.3192 28.7708 68.2646 28.4145 68.1552 28.1129C68.0491 27.8113 67.8917 27.5777 67.6829 27.4119C67.4774 27.2462 67.2238 27.1634 66.9222 27.1634C66.6239 27.1634 66.3704 27.2446 66.1616 27.407C65.9528 27.5694 65.792 27.8014 65.6793 28.103C65.57 28.4046 65.5153 28.7642 65.5153 29.1818ZM75.6586 33.1442C74.8598 33.1442 74.1704 32.9867 73.5904 32.6719C73.0137 32.3537 72.5695 31.9013 72.258 31.3146C71.9498 30.7247 71.7956 30.0237 71.7956 29.2116C71.7956 28.4228 71.9514 27.7334 72.263 27.1435C72.5745 26.5502 73.0137 26.0895 73.5804 25.7614C74.1472 25.4299 74.815 25.2642 75.584 25.2642C76.1275 25.2642 76.6247 25.3487 77.0755 25.5178C77.5262 25.6868 77.9157 25.937 78.2438 26.2685C78.5719 26.5999 78.8271 27.0092 79.0094 27.4964C79.1917 27.9804 79.2828 28.5355 79.2828 29.1619V29.7685H72.6458V28.3565H77.0208C77.0175 28.098 76.9561 27.8677 76.8368 27.6655C76.7175 27.4633 76.5534 27.3059 76.3446 27.1932C76.1391 27.0772 75.9022 27.0192 75.6337 27.0192C75.3619 27.0192 75.1183 27.0805 74.9029 27.2031C74.6874 27.3224 74.5167 27.4865 74.3908 27.6953C74.2649 27.9008 74.1986 28.1345 74.1919 28.3963V29.8331C74.1919 30.1446 74.2533 30.4181 74.3759 30.6534C74.4985 30.8854 74.6725 31.0661 74.8979 31.1953C75.1233 31.3246 75.3917 31.3892 75.7033 31.3892C75.9187 31.3892 76.1143 31.3594 76.29 31.2997C76.4656 31.2401 76.6164 31.1522 76.7424 31.0362C76.8683 30.9202 76.9628 30.7777 77.0257 30.6087L79.258 30.6733C79.1652 31.1738 78.9614 31.6096 78.6465 31.9808C78.3349 32.3487 77.9256 32.6354 77.4185 32.8409C76.9114 33.0431 76.3248 33.1442 75.6586 33.1442ZM80.5245 33V25.3636H82.886V26.7557H82.9656C83.1048 26.2519 83.3318 25.8774 83.6467 25.6321C83.9615 25.3835 84.3278 25.2592 84.7454 25.2592C84.8581 25.2592 84.9741 25.2675 85.0934 25.2841C85.2127 25.2973 85.3237 25.3189 85.4265 25.3487V27.4616C85.3105 27.4219 85.158 27.3904 84.9691 27.3672C84.7835 27.344 84.6178 27.3324 84.4719 27.3324C84.1836 27.3324 83.9234 27.397 83.6914 27.5263C83.4627 27.6522 83.2821 27.8295 83.1495 28.0582C83.0202 28.2836 82.9556 28.5488 82.9556 28.8537V33H80.5245ZM93.084 27.6953L90.8517 27.755C90.8285 27.5959 90.7656 27.455 90.6628 27.3324C90.5601 27.2064 90.4258 27.1087 90.2601 27.0391C90.0977 26.9661 89.9088 26.9297 89.6934 26.9297C89.4116 26.9297 89.1713 26.986 88.9725 27.0987C88.7769 27.2114 88.6808 27.3639 88.6841 27.5561C88.6808 27.7053 88.7405 27.8345 88.8631 27.9439C88.9891 28.0533 89.2128 28.1411 89.5343 28.2074L91.0059 28.4858C91.7682 28.6316 92.3349 28.8736 92.7061 29.2116C93.0807 29.5497 93.2696 29.9972 93.2729 30.554C93.2696 31.0777 93.1138 31.5334 92.8056 31.9212C92.5007 32.3089 92.083 32.6106 91.5527 32.826C91.0224 33.0381 90.4159 33.1442 89.7331 33.1442C88.6427 33.1442 87.7826 32.9205 87.1529 32.473C86.5265 32.0223 86.1685 31.419 86.079 30.6634L88.4803 30.6037C88.5333 30.8821 88.6709 31.0942 88.8929 31.2401C89.115 31.3859 89.3984 31.4588 89.7431 31.4588C90.0546 31.4588 90.3082 31.4008 90.5037 31.2848C90.6993 31.1688 90.7987 31.0147 90.802 30.8224C90.7987 30.6501 90.7225 30.5125 90.5733 30.4098C90.4242 30.3037 90.1905 30.2209 89.8723 30.1612L88.54 29.9077C87.7743 29.7685 87.2042 29.5116 86.8297 29.1371C86.4552 28.7592 86.2696 28.2786 86.2729 27.6953C86.2696 27.1849 86.4055 26.7491 86.6806 26.3878C86.9557 26.0232 87.3468 25.7448 87.8539 25.5526C88.361 25.3603 88.9592 25.2642 89.6486 25.2642C90.6827 25.2642 91.498 25.4813 92.0946 25.9155C92.6912 26.3464 93.021 26.9396 93.084 27.6953Z" fill="#020202"/>
<path d="M7 26.6952L27 26.6952L27 34L23.8153 34L23.8153 30.951L10.1847 30.951L10.1847 34L7 34L7 26.6952Z" fill="#020202"/>
<path d="M7 16.8476L27 16.8476L27 24.1524L23.8153 24.1524L23.8153 21.1034L10.1847 21.1034L10.1847 24.1524L7 24.1524L7 16.8476Z" fill="#020202"/>
<path d="M6.99991 7L26.9999 7L26.9999 14.3048L23.8152 14.3048L23.8152 11.2558L10.1846 11.2558L10.1846 14.3048L6.99991 14.3048L6.99991 7Z" fill="#020202"/>
</svg>
